<svg xmlns="http://www.w3.org/2000/svg" width="14" height="14" viewBox="0 0 14 14"><defs><style>.a{fill:#fff;}</style></defs><path class="a" d="M5.7,14.2a1.4,1.4,0,1,0,1.4,1.4A1.4,1.4,0,0,0,5.7,14.2ZM1.5,3V4.4H2.9L5.42,9.713l-.945,1.715A1.353,1.353,0,0,0,4.3,12.1a1.4,1.4,0,0,0,1.4,1.4h8.4V12.1H5.994a.173.173,0,0,1-.175-.175l.021-.084L6.47,10.7h5.215a1.393,1.393,0,0,0,1.225-.721l2.506-4.543A.684.684,0,0,0,15.5,5.1a.7.7,0,0,0-.7-.7H4.447L3.789,3ZM12.7,14.2a1.4,1.4,0,1,0,1.4,1.4A1.4,1.4,0,0,0,12.7,14.2Z" transform="translate(-1.5 -3)"/></svg>