<svg xmlns="http://www.w3.org/2000/svg" width="49.824" height="44.672" viewBox="0 0 49.824 44.672"><defs><style>.a{fill:none;}.b{fill:#e64a31;}</style></defs><path class="a" d="M0,0H49.824V44.672H0ZM0,0H49.824V44.672H0ZM0,0H49.824V44.672H0ZM0,0H49.824V44.672H0Z"/><path class="b" d="M24.794,9.727A21.271,21.271,0,0,1,43.873,21a19.95,19.95,0,0,1-5.213,6.4l3.05,2.89A24.237,24.237,0,0,0,48.589,21,25.593,25.593,0,0,0,24.794,5.627,26.936,26.936,0,0,0,16.921,6.8l3.569,3.382A23.026,23.026,0,0,1,24.794,9.727ZM22.48,12.063l4.478,4.243a5.271,5.271,0,0,1,2.769,2.624L34.2,23.173a9.118,9.118,0,0,0,.3-2.193,9.454,9.454,0,0,0-9.712-9.2A9.659,9.659,0,0,0,22.48,12.063Zm-19.3-6.7,5.8,5.493A24.213,24.213,0,0,0,1,21,25.594,25.594,0,0,0,24.794,36.373a26.61,26.61,0,0,0,9.345-1.681l7.4,7.01,3.05-2.89L6.235,2.45ZM19.408,20.734l5.646,5.35a1.141,1.141,0,0,1-.26.041A5.274,5.274,0,0,1,19.387,21C19.387,20.9,19.408,20.836,19.408,20.734Zm-7.355-6.969,3.785,3.587A9,9,0,0,0,15.06,21a9.5,9.5,0,0,0,9.734,9.224,10.231,10.231,0,0,0,3.829-.738l2.12,2.009a23.736,23.736,0,0,1-5.949.779A21.271,21.271,0,0,1,5.716,21a20.593,20.593,0,0,1,6.338-7.236Z" transform="translate(0.118 0.288)"/></svg>